Coordinates
version=1
nRows=11
nColumns=40
inDegrees=yes

Units are S.I. units (second, meters, Newtons, ...)
Angles are in degrees.

endheader
time	pelvis_tilt	pelvis_list	pelvis_rotation	pelvis_tx	pelvis_ty	pelvis_tz	hip_flexion_r	hip_adduction_r	hip_rotation_r	knee_angle_r	knee_angle_r_beta	ankle_angle_r	subtalar_angle_r	mtp_angle_r	hip_flexion_l	hip_adduction_l	hip_rotation_l	knee_angle_l	knee_angle_l_beta	ankle_angle_l	subtalar_angle_l	mtp_angle_l	lumbar_extension	lumbar_bending	lumbar_rotation	arm_flex_r	arm_add_r	arm_rot_r	elbow_flex_r	pro_sup_r	wrist_flex_r	wrist_dev_r	arm_flex_l	arm_add_l	arm_rot_l	elbow_flex_l	pro_sup_l	wrist_flex_l	wrist_dev_l
      0.00000000	     -4.74759142	     -2.36380286	     -6.49140453	     -0.81569147	      0.94767765	      1.47271211	      1.87871849	     -3.62276015	    -21.34287524	    -11.51488433	     -0.20097264	      6.79804572	      6.74224411	     -3.75117231	     28.06641259	      3.51919589	     11.16530708	    -58.92161937	     -1.02837626	      3.49798416	     15.64853463	     -1.79460267	     -3.12386415	     -1.29496695	      0.87197819	      4.96364009	    -18.10210024	    -12.48775693	     25.28938241	     89.95437384	      0.00000000	      0.00000000	      3.60044393	      9.53364172	     16.11523616	     25.68758880	     89.95437384	      0.00000000	      0.00000000
      0.01000000	     -4.16651653	     -1.91301086	     -6.32756009	     -0.80419587	      0.94814565	      1.47633066	      0.13595870	     -3.95968058	    -22.01445538	    -10.83943313	     -0.18918380	      6.94976303	      7.64623128	     -4.86732651	     28.30771174	      3.00211791	     12.48954231	    -56.34802850	     -0.98345862	      3.73995978	     15.41590418	     -1.19588421	     -3.89424677	     -1.94528269	      1.46316660	      5.86861666	    -18.51394331	    -11.74676283	     25.97376410	     89.95437384	      0.00000000	      0.00000000	      3.34798216	     10.10508747	     17.98005036	     23.92928841	     89.95437384	      0.00000000	      0.00000000
      0.02000000	     -3.90035257	     -1.46813932	     -6.36868382	     -0.79269866	      0.94768530	      1.48035249	     -1.14483055	     -4.19921979	    -22.17141018	    -10.34684271	     -0.18058647	      7.33953773	      7.78783711	     -5.67103293	     28.76481332	      2.59665049	     13.79783317	    -53.60664907	     -0.93561253	      4.04317015	     15.04504375	     -0.86742059	     -4.28813546	     -2.56950657	      2.13185644	      6.74459827	    -18.90495367	    -10.99606923	     26.72019136	     89.95437384	      0.00000000	      0.00000000	      2.92597499	     10.83408654	     19.48823185	     22.21808530	     89.95437384	      0.00000000	      0.00000000
      0.03000000	     -3.68474372	     -1.14011545	     -6.41928554	     -0.78131678	      0.94685349	      1.48415422	     -2.31962589	     -4.31838328	    -22.27880323	     -9.95653480	     -0.17377431	      7.71464574	      7.68636846	     -6.27073277	     29.22221147	      2.34671483	     15.21177362	    -50.72941581	     -0.88539533	      4.22395981	     14.72427084	     -0.67399984	     -4.64406312	     -3.05087888	      2.86040311	      7.60177524	    -19.33670338	    -10.41981165	     27.43066114	     89.95437384	      0.00000000	      0.00000000	      2.46196789	     11.56238255	     20.84108237	     20.69932490	     89.95437384	      0.00000000	      0.00000000
      0.04000000	     -4.00275325	     -1.28192604	     -6.26170849	     -0.77005985	      0.94479839	      1.48784266	     -2.96305823	     -3.83023304	    -22.62178985	     -9.63684613	     -0.16819469	      8.09953603	      7.54871375	     -6.40518342	     30.31070353	      2.50675357	     16.04714463	    -47.92957784	     -0.83652894	      4.53543904	     14.46532604	     -0.60510385	     -4.43373440	     -2.95357260	      3.42419411	      8.40862926	    -19.75223071	    -10.21550797	     28.01307780	     89.95437384	      0.00000000	      0.00000000	      1.63645306	     12.36842682	     21.27331004	     19.71060277	     89.95437384	      0.00000000	      0.00000000
      0.05000000	     -3.45531555	     -0.69524860	     -6.34890402	     -0.75815827	      0.94411965	      1.49093214	     -4.49870411	     -4.33718422	    -22.57641379	     -9.25165799	     -0.16147189	      8.32438382	      7.41178926	     -7.17869142	     29.99873105	      1.81657612	     17.41910576	    -44.30232374	     -0.77322142	      4.51366477	     13.58568676	     -0.39123535	     -5.14195945	     -3.72803949	      3.91628650	      9.38582492	    -20.19098611	     -9.34423368	     28.75497649	     89.95437384	      0.00000000	      0.00000000	      1.25467628	     13.00987250	     23.86977250	     17.99945735	     89.95437384	      0.00000000	      0.00000000
      0.06000000	     -3.59788386	     -0.55896155	     -6.22090793	     -0.74667511	      0.94200064	      1.49380874	     -5.27543171	     -4.26688222	    -22.86326767	     -9.03375163	     -0.15766871	      8.78472211	      7.25067830	     -7.56575139	     30.61061550	      1.61158749	     18.37272352	    -40.95214084	     -0.71474969	      4.14636109	     12.67294704	     -0.18073144	     -5.12584800	     -3.90733962	      4.35624237	     10.18128363	    -20.65420659	     -8.94842691	     29.51675898	     89.95437384	      0.00000000	      0.00000000	      0.62832721	     13.78431639	     24.75967318	     16.63242515	     89.95437384	      0.00000000	      0.00000000
      0.07000000	     -3.49269893	     -0.37181060	     -6.18953724	     -0.73486371	      0.94015091	      1.49655794	     -6.28224864	     -4.35572086	    -23.40605060	     -8.88198069	     -0.15501981	      9.08293191	      7.52282779	     -8.45688649	     30.74826469	      1.32340164	     19.39662280	    -37.36795089	     -0.65219378	      3.56484670	     11.82188312	      0.22291821	     -5.38321702	     -4.18441992	      4.71061502	     11.07061422	    -21.06454335	     -8.47927200	     30.26339033	     89.95437384	      0.00000000	      0.00000000	     -0.11866217	     14.46533600	     26.63945897	     15.43464951	     89.95437384	      0.00000000	      0.00000000
      0.08000000	     -3.67331624	     -0.35387774	     -5.99925344	     -0.72297014	      0.93769312	      1.49889653	     -7.04536074	     -4.20049686	    -23.89301719	     -8.70552041	     -0.15193999	      9.41378310	      7.60734544	     -8.98516524	     31.19162657	      1.11151004	     20.12855443	    -33.79525330	     -0.58983844	      2.77325737	     11.27173612	      0.67622696	     -5.29670993	     -4.20929831	      5.00976641	     11.75571124	    -21.48928282	     -8.30902013	     31.11241303	     89.95437384	      0.00000000	      0.00000000	     -1.01852860	     15.17354579	     27.44091530	     14.45837029	     89.95437384	      0.00000000	      0.00000000
      0.09000000	     -4.07009860	     -0.81600103	     -5.69445160	     -0.71098369	      0.93460912	      1.50131104	     -7.68117746	     -3.43620445	    -24.47389424	     -8.43453973	     -0.14721049	      9.78433276	      7.63572533	     -9.13192717	     32.13275098	      1.58664897	     21.13038666	    -31.19407424	     -0.54443930	      2.86340501	     11.32191569	      0.81528275	     -4.98586265	     -3.68054372	      5.18415742	     12.47750871	    -21.88744194	     -8.31216127	     31.77809609	     89.95437384	      0.00000000	      0.00000000	     -2.11766266	     15.87752679	     27.62197034	     13.62462608	     89.95437384	      0.00000000	      0.00000000
      0.10000000	     -3.76174855	     -0.31115974	     -5.54826107	     -0.69846294	      0.93287843	      1.50263106	     -8.93035485	     -4.08476713	    -25.59872320	     -8.35820912	     -0.14587827	      9.79294641	      9.03652452	    -10.49708697	     31.62780742	      0.62811894	     21.99799012	    -27.11832480	     -0.47330406	      2.12468361	     11.54063179	      2.11428485	     -5.41644863	     -4.24370178	      5.32922237	     13.08272200	    -22.33300995	     -7.96603468	     32.91200316	     89.95437384	      0.00000000	      0.00000000	     -2.93997458	     16.48413019	     29.20380429	     12.54330572	     89.95437384	      0.00000000	      0.00000000
